<svg xmlns="http://www.w3.org/2000/svg" width="43.288" height="43.297" viewBox="0 0 43.288 43.297"><path id="Trazado_8245" data-name="Trazado 8245" d="M352.433,299.687A21.649,21.649,0,1,1,330.8,321.324,21.634,21.634,0,0,1,352.433,299.687Zm-12.743,31.18c.1.069.2.145.307.2a15.457,15.457,0,0,0,23.355-13.6.879.879,0,0,1,.388-.806,9.73,9.73,0,0,0,2.283-2.468c-.411.142-.711.253-1.016.348s-.62.19-.935.262c-.294.067-.6.1-1.028.176,1.353-1.074,2.09-2.074,2.191-2.9-.469.217-.929.459-1.41.645s-.988.31-1.477.479a.692.692,0,0,1-.779-.187,5.451,5.451,0,0,0-9.055,4.927,2.433,2.433,0,0,1,0,.34,15.646,15.646,0,0,1-11.19-5.678,5.2,5.2,0,0,0-.733,2.888,5.518,5.518,0,0,0,2.3,4.312l-.081.126-2.231-.626c-.124,2.3,1.245,4.044,4.166,5.4h-2.276a5.4,5.4,0,0,0,1.9,2.679,5.688,5.688,0,0,0,3.173,1.122A11.612,11.612,0,0,1,339.69,330.867Z" transform="translate(-330.801 -299.687)" fill="#00d5d5"></path></svg>