<svg xmlns="http://www.w3.org/2000/svg" width="92.114" height="92.105" viewBox="0 0 92.114 92.105"><g id="noun-medic-3171672" transform="translate(-96.774 -26.243)"><path id="Trazado_11750" data-name="Trazado 11750" d="M188.415,26.706a1.589,1.589,0,0,0-2.241,0L168.911,43.953l-3.179-3.179a1.59,1.59,0,0,0-2.242,0l-5.946,5.946-4.531-4.531h0a1.591,1.591,0,0,0-2.242,0l-7.058,7.058L119.521,73.568a1.589,1.589,0,0,0,0,2.241l5.946,5.946-20.14,20.14L99.4,95.95a1.589,1.589,0,0,0-2.241,2.241l19.775,19.775a1.589,1.589,0,0,0,2.241-2.241l-5.946-5.946L133.352,89.67l5.946,5.946h0a1.591,1.591,0,0,0,2.242,0L172.855,64.3a1.591,1.591,0,0,0,0-2.242l-4.531-4.531,5.946-5.946h0a1.59,1.59,0,0,0,0-2.242l-3.179-3.179,17.327-17.2a1.588,1.588,0,0,0,0-2.257Zm-77.43,80.833-3.4-3.4,20.125-20.124,3.4,3.4Zm29.44-15.308-17.55-17.55,5.055-5.055,4.53,4.53a1.59,1.59,0,1,0,2.242-2.242l-4.531-4.531,6.247-6.168,4.531,4.53a1.589,1.589,0,0,0,2.241-2.241l-4.53-4.53,6.231-6.231,4.53,4.531a1.59,1.59,0,0,0,2.242-2.242l-4.531-4.53,4.769-4.769,4.594,4.356,13.019,13.019ZM166.1,55.255,159.738,48.9l4.769-4.769,6.358,6.358Z" transform="translate(0 0)" fill="#f9501e"></path></g></svg>