<svg xmlns="http://www.w3.org/2000/svg" width="77.47" height="77.228" viewBox="0 0 77.47 77.228"><g id="noun-pediatric-4740020" transform="translate(-85.591 -17.2)"><path id="Trazado_11698" data-name="Trazado 11698" d="M238.7,176.957a5.38,5.38,0,0,0,3.762,1.693,5.7,5.7,0,0,0,3.828-1.672,1.286,1.286,0,1,0-1.733-1.9,2.614,2.614,0,0,1-4.062.027,1.287,1.287,0,1,0-1.795,1.845Z" transform="translate(-130.269 -134.35)" fill="#f9501e"></path><path id="Trazado_11699" data-name="Trazado 11699" d="M303.707,152.4a5.7,5.7,0,0,0,3.828-1.672,1.286,1.286,0,1,0-1.733-1.9,2.613,2.613,0,0,1-4.062.027,1.287,1.287,0,1,0-1.795,1.845,5.379,5.379,0,0,0,3.762,1.7Z" transform="translate(-182.509 -111.962)" fill="#f9501e"></path><path id="Trazado_11700" data-name="Trazado 11700" d="M181.207,152.4a5.7,5.7,0,0,0,3.828-1.672,1.286,1.286,0,1,0-1.733-1.9,2.613,2.613,0,0,1-4.062.027,1.287,1.287,0,1,0-1.795,1.845,5.379,5.379,0,0,0,3.762,1.7Z" transform="translate(-78.018 -111.962)" fill="#f9501e"></path><path id="Trazado_11701" data-name="Trazado 11701" d="M230.073,80.036a1.286,1.286,0,1,1-1.286-1.286,1.286,1.286,0,0,1,1.286,1.286" transform="translate(-121.046 -52.501)" fill="#f9501e"></path><path id="Trazado_11702" data-name="Trazado 11702" d="M544.041,26.5h-5.747l6.519-6.83a1.3,1.3,0,0,0-.93-2.174h-8.846a1.286,1.286,0,0,0,0,2.573h5.841l-6.52,6.83a1.287,1.287,0,0,0,.937,2.174h8.747a1.286,1.286,0,0,0,0-2.573Z" transform="translate(-382.273 -0.256)" fill="#f9501e"></path><path id="Trazado_11703" data-name="Trazado 11703" d="M471.469,111.432h-3.246l4.064-4.258h0a1.3,1.3,0,0,0-.931-2.174h-6.319a1.286,1.286,0,0,0,0,2.573h3.312l-4.064,4.258a1.3,1.3,0,0,0,.931,2.174h6.252a1.286,1.286,0,0,0,0-2.573Z" transform="translate(-322.565 -74.892)" fill="#f9501e"></path><path id="Trazado_11704" data-name="Trazado 11704" d="M162.925,63.2a2.475,2.475,0,0,0-3.087-2.253c-6.4,1.454-12.092-2.878-14.253-4.81a2.491,2.491,0,0,0-3.322,0c-1.764,1.572-5.886,4.733-10.789,5.074a18.987,18.987,0,0,0-1.76-7.03,16.273,16.273,0,0,0,2.843-4.851,8.376,8.376,0,0,0,6.335-7.82,8.383,8.383,0,0,0-5.96-7.7,21.194,21.194,0,0,0-41.382,0,8.383,8.383,0,0,0-5.96,7.7,8.376,8.376,0,0,0,6.335,7.82,16.27,16.27,0,0,0,2.843,4.851,19.04,19.04,0,0,0-1.823,8.092V75.132a19.279,19.279,0,0,0,36.493,8.7,29.841,29.841,0,0,0,13.5,10.4,2.527,2.527,0,0,0,1.966,0c17.537-7.429,18.681-21.267,18.02-31.032ZM133.383,36.8a5.305,5.305,0,0,1-.06,9.459,14.367,14.367,0,0,0,.145-1.973v-5.8c0-.57-.041-1.13-.085-1.687ZM88.164,41.5A5.566,5.566,0,0,1,91.1,36.8c-.044.558-.085,1.118-.085,1.688v5.8a14.347,14.347,0,0,0,.145,1.972,5.539,5.539,0,0,1-3-4.753Zm5.426,2.78v-5.8a18.668,18.668,0,0,1,18.64-18.715,3.53,3.53,0,0,1,3.657,3.473,3.428,3.428,0,0,1-3.424,3.424,1.286,1.286,0,0,0,0,2.573,6.006,6.006,0,0,0,6-6,5.913,5.913,0,0,0-.623-2.607,18.737,18.737,0,0,1,13.058,17.849v5.8c0,8.208-8.361,14.9-18.653,14.9s-18.653-6.689-18.653-14.9Zm32.33,17.092a2.465,2.465,0,0,0-.991,1.814c-.037.554-.068,1.124-.091,1.7a60.394,60.394,0,0,1-17.9,7.029A56.871,56.871,0,0,1,95.52,65.467v-3.2a16.481,16.481,0,0,1,1.184-6.13,24.321,24.321,0,0,0,31.079.007A16.4,16.4,0,0,1,128.9,61.1a3.431,3.431,0,0,0-2.976.27Zm.094,15.106h0A56,56,0,0,1,111.1,73.535,63.454,63.454,0,0,0,124.8,67.884a33.7,33.7,0,0,0,1.209,8.6ZM112.243,91.854A16.742,16.742,0,0,1,95.52,75.131V68.618a60.876,60.876,0,0,0,31.4,10.48q.407,1.012.916,2.013a16.715,16.715,0,0,1-15.588,10.742Zm31.7,0C128.1,85.14,126.837,73.1,127.426,63.445c7.528,1.726,14.082-3.2,16.441-5.4,2.444,2.194,8.952,7.1,16.492,5.413.65,9.727-.66,21.71-16.414,28.4Z" fill="#f9501e"></path><path id="Trazado_11705" data-name="Trazado 11705" d="M435.342,360.895a3.9,3.9,0,0,0-5.491-.149l-6.1,5.789-1.638-1.638a3.974,3.974,0,0,0-5.491,0,3.887,3.887,0,0,0,0,5.491l4.309,4.312a3.86,3.86,0,0,0,5.418.074l8.849-8.384h0a3.9,3.9,0,0,0,.148-5.492Zm-1.918,3.621-8.848,8.384h0a1.306,1.306,0,0,1-1.83-.024l-4.31-4.312a1.311,1.311,0,0,1,1.854-1.852l2.523,2.523h0a1.285,1.285,0,0,0,1.794.025l7.013-6.646h0a1.311,1.311,0,1,1,1.8,1.9Z" transform="translate(-281.392 -292.138)" fill="#f9501e"></path></g></svg>