<svg xmlns="http://www.w3.org/2000/svg" width="51.852" height="35.524" viewBox="0 0 51.852 35.524"><path id="Trazado_11630" data-name="Trazado 11630" d="M24.123,9.5c-.073,2.787-1.318,5.235-2.142,7.825-2.849,8.955-8.177,16.367-14.1,23.449-1.5,1.791-2.962,3.61-4.507,5.359-.581.657-1.361,1.516-2.3.842a3.6,3.6,0,0,1-1-2.006,4.171,4.171,0,0,1,.081-1.923Q4.539,25.513,8.982,8A10.108,10.108,0,0,1,9.9,5.855C12.025,1.789,16.064-.669,19.209.16,22.12.927,24.214,4.91,24.123,9.5Z" transform="matrix(0.259, 0.966, -0.966, 0.259, 45.608, 0)" fill="#a16fd6"></path></svg>